<svg width="296" height="123" viewBox="0 0 296 123" fill="none" xmlns="http://www.w3.org/2000/svg">
<g clip-path="url(#clip0_2361_1374)">
<g clip-path="url(#clip1_2361_1374)">
<path d="M170.328 109.641C170.93 109.898 171.486 110.252 171.974 110.69L170.673 112.243C170.361 111.968 170.01 111.741 169.632 111.57C169.284 111.428 168.912 111.356 168.536 111.357C166.78 111.357 165.904 112.947 165.908 116.126C165.908 117.77 166.139 118.965 166.605 119.724C166.795 120.074 167.077 120.365 167.42 120.566C167.764 120.767 168.156 120.87 168.554 120.864C168.959 120.871 169.36 120.78 169.722 120.597C170.12 120.383 170.496 120.129 170.842 119.839L172.108 121.374C171.65 121.863 171.103 122.26 170.497 122.545C169.843 122.854 169.126 123.009 168.403 123C167.412 123.022 166.436 122.757 165.594 122.235C164.753 121.673 164.104 120.867 163.735 119.924C163.262 118.715 163.037 117.424 163.075 116.126C163.039 114.843 163.269 113.565 163.753 112.377C164.142 111.437 164.799 110.633 165.642 110.065C166.461 109.544 167.415 109.274 168.385 109.289C169.049 109.279 169.709 109.398 170.328 109.641Z" fill="#C1967B"/>
<path d="M185.487 111.042C186.407 112.211 186.867 113.911 186.867 116.144C186.867 118.376 186.407 120.071 185.487 121.228C185.027 121.814 184.433 122.281 183.756 122.589C183.078 122.898 182.337 123.038 181.594 122.999C180.852 123.038 180.111 122.899 179.432 122.595C178.754 122.292 178.156 121.831 177.689 121.252C176.763 120.081 176.303 118.383 176.303 116.144C176.303 113.905 176.763 112.243 177.689 111.06C178.154 110.477 178.751 110.014 179.43 109.708C180.108 109.402 180.85 109.262 181.594 109.301C182.334 109.261 183.073 109.398 183.749 109.701C184.426 110.004 185.022 110.463 185.487 111.042ZM179.741 112.455C179.338 113.195 179.136 114.425 179.136 116.144C179.136 117.863 179.338 119.098 179.741 119.851C179.912 120.192 180.177 120.477 180.504 120.673C180.831 120.869 181.207 120.966 181.588 120.955C181.964 120.965 182.336 120.866 182.658 120.67C182.98 120.475 183.239 120.19 183.404 119.851C183.804 119.111 184.009 117.873 184.009 116.144C184.009 114.415 183.816 113.195 183.404 112.455C183.242 112.112 182.985 111.823 182.662 111.624C182.34 111.425 181.967 111.324 181.588 111.333C181.205 111.32 180.826 111.419 180.498 111.619C180.17 111.818 179.907 112.109 179.741 112.455Z" fill="#C1967B"/>
<path d="M201.511 122.696H198.054L194.537 112.225C194.558 112.363 194.57 112.503 194.573 112.643C194.676 113.523 194.755 114.324 194.809 115.07C194.864 115.816 194.894 116.611 194.894 117.557V122.726H192.473V109.622H195.875L199.447 120.118C199.212 118.575 199.091 117.018 199.083 115.458V109.622H201.505L201.511 122.696Z" fill="#C1967B"/>
<path d="M214.381 109.641C214.982 109.898 215.536 110.252 216.021 110.69L214.72 112.243C214.409 111.967 214.058 111.74 213.679 111.57C213.331 111.427 212.958 111.355 212.583 111.357C210.835 111.357 209.96 112.947 209.956 116.126C209.956 117.77 210.191 118.965 210.658 119.724C210.847 120.073 211.129 120.364 211.471 120.565C211.814 120.766 212.204 120.869 212.601 120.864C213.008 120.871 213.411 120.78 213.776 120.597C214.171 120.382 214.544 120.128 214.889 119.839L216.154 121.374C215.699 121.863 215.154 122.26 214.55 122.545C213.893 122.854 213.175 123.009 212.45 123C211.461 123.022 210.487 122.757 209.647 122.235C208.804 121.674 208.153 120.867 207.782 119.924C207.309 118.715 207.084 117.424 207.122 116.126C207.085 114.843 207.316 113.565 207.8 112.377C208.189 111.435 208.849 110.63 209.695 110.065C210.512 109.545 211.463 109.275 212.431 109.289C213.098 109.279 213.76 109.398 214.381 109.641Z" fill="#C1967B"/>
<path d="M228.419 109.592L228.135 111.582H223.97V115.046H227.602V117.018H223.97V120.658H228.431V122.666H221.251V109.562L228.419 109.592Z" fill="#C1967B"/>
<path d="M237.894 117.527H236.719V122.696H234.001V109.592H237.633C240.987 109.592 242.664 110.892 242.664 113.493C242.712 114.249 242.515 115 242.103 115.635C241.691 116.27 241.085 116.755 240.376 117.018L243.403 122.696H240.376L237.894 117.527ZM237.76 115.616C238.044 115.641 238.331 115.609 238.602 115.521C238.873 115.434 239.124 115.293 239.341 115.107C239.709 114.654 239.887 114.075 239.837 113.493C239.863 113.222 239.828 112.95 239.734 112.694C239.641 112.439 239.492 112.208 239.298 112.019C238.81 111.663 238.21 111.495 237.609 111.545H236.719V115.616H237.76Z" fill="#C1967B"/>
<path d="M255.916 109.592L255.631 111.715H252.701V122.696H250.001V111.727H246.938V109.604L255.916 109.592Z" fill="#C1967B"/>
<path d="M51.8684 1.0752V3.95084H57.5408V41.0614C55.7974 37.6033 54.0619 34.2201 52.3346 30.9116C50.6072 27.6032 48.8718 24.3231 47.1283 21.0713C45.3848 17.8357 43.6515 14.5556 41.9282 11.231C40.2049 7.90638 38.4695 4.52113 36.722 1.0752H25.686V3.95084H31.2979V42.7782H25.686V45.6539H40.5842V42.7782H34.8515V4.92151L56.2331 45.6539H61.0761V3.98121H66.1248V1.10556L51.8684 1.0752Z" fill="#DDD0C8"/>
<path d="M86.8407 10.5098V15.072C85.7785 13.3405 84.2102 11.9785 82.3489 11.1711C80.3849 10.3042 78.2593 9.86574 76.1134 9.8849C74.5586 9.86048 73.024 10.2387 71.6579 10.9829C70.3265 11.7339 69.1934 12.7926 68.3526 14.071C67.3949 15.5591 66.6988 17.2007 66.2944 18.9244C65.7963 21.0021 65.5562 23.1335 65.5799 25.2702V30.3906C65.5546 32.5154 65.7947 34.635 66.2944 36.7C66.6976 38.4066 67.4053 40.0262 68.383 41.4807C69.2491 42.7338 70.3901 43.7715 71.7185 44.5141C73.0878 45.2552 74.6242 45.6312 76.1802 45.6061C78.3265 45.6359 80.4536 45.1992 82.4154 44.326C84.2873 43.467 85.8374 42.0326 86.8407 40.2309V45.6061C86.8407 48.6031 86.2575 50.7487 85.0911 52.0429C84.4021 52.7798 83.5217 53.3093 82.5487 53.5718C81.5312 53.8612 80.4765 53.9982 79.419 53.9783H77.4273C76.3812 53.998 75.3368 53.8797 74.3215 53.6264C73.6301 53.4588 72.9798 53.1535 72.4087 52.7285C71.3493 51.8913 70.7318 50.5809 70.5926 48.7912H69.1578C68.8659 48.7788 68.5735 48.7991 68.2861 48.8518C67.8684 48.8518 67.4506 49.1673 67.039 49.7922C67.0649 50.8156 67.3226 51.8198 67.7924 52.7289C68.2623 53.638 68.9319 54.4282 69.751 55.04C71.3896 56.2533 73.7687 56.86 76.8884 56.86H79.6306C80.6152 56.8666 81.5989 56.7976 82.573 56.6537C84.8734 56.318 86.635 55.5435 87.8579 54.3301C89.565 52.6355 90.4186 49.8549 90.4186 45.9883V13.3733H94.7833V10.4977L86.8407 10.5098ZM86.8407 28.3825C86.8551 30.3307 86.6768 32.2755 86.3081 34.1884C86.0157 35.7596 85.5126 37.2841 84.8127 38.7203C84.2761 39.8538 83.5114 40.8638 82.5667 41.687C81.8005 42.3643 80.8158 42.7413 79.7941 42.7487H77.179C76.0197 42.7643 74.8811 42.4395 73.9038 41.8144C72.8816 41.146 72.0196 40.2593 71.3795 39.2178C70.6182 37.9934 70.0601 36.6534 69.7268 35.2501C69.3121 33.5754 69.1087 31.8552 69.1214 30.1297V25.5069C69.106 23.7717 69.2951 22.0408 69.6845 20.3501C70.0015 18.933 70.5364 17.5739 71.2704 16.3217C71.8867 15.2752 72.7287 14.3798 73.7344 13.7009C74.6991 13.0721 75.8285 12.7448 76.9792 12.7605H79.7217C80.7811 12.7703 81.8001 13.1697 82.5851 13.8829C83.5417 14.7452 84.3069 15.7993 84.831 16.9769C85.5097 18.4612 86.0017 20.0243 86.2959 21.6302C86.6622 23.5659 86.8406 25.5327 86.8286 27.5029L86.8407 28.3825Z" fill="#DDD0C8"/>
<path d="M122.987 10.5094V16.382H124.549V18.3841C124.512 19.1099 124.365 19.8258 124.113 20.5075C123.877 21.125 123.505 21.6809 123.024 22.1333C122.415 22.6769 121.67 23.044 120.869 23.195V10.5094H112.702V13.3851H117.315V33.6906C117.327 34.9994 117.106 36.2999 116.661 37.5308C116.263 38.6525 115.645 39.6836 114.845 40.5642C114.061 41.415 113.119 42.1053 112.073 42.5966C110.99 43.0988 109.809 43.3537 108.616 43.3428C106.449 43.3428 104.905 42.6148 103.967 41.1588C103.028 39.7028 102.568 37.4702 102.568 34.4854V10.4912H94.6499V13.3669H99.0146V34.9828C99.0146 38.6471 99.6988 41.4379 101.067 43.355C102.435 45.2721 104.556 46.2306 107.43 46.2306C109.439 46.2648 111.43 45.8503 113.259 45.0173C114.96 44.2259 116.399 42.9627 117.406 41.3772V45.624H125.572V42.7483H120.893V25.9433C121.268 25.8583 121.849 25.6824 122.643 25.4094C123.506 25.096 124.307 24.6318 125.009 24.0383C125.862 23.3078 126.562 22.4149 127.068 21.4114C127.7 20.0777 128 18.6098 127.94 17.1343V10.5094H122.987Z" fill="#DDD0C8"/>
<path d="M141.421 -1.11426H136.681L143.601 7.50661H147.233L141.421 -1.11426ZM156.822 10.5036V16.3762H158.377V18.3783C158.302 18.9703 158.176 19.5548 158.002 20.1255C157.81 20.6379 157.55 21.1216 157.227 21.5634C156.844 22.0894 156.342 22.5175 155.762 22.8131C155.387 18.7686 154.233 15.6038 152.3 13.3186C150.366 11.0335 147.759 9.88683 144.478 9.87874H141.361C137.728 9.87874 134.933 11.2943 132.976 14.1255C131.019 16.9567 130.03 20.7989 130.01 25.6524V30.3966C130.01 35.2742 130.998 39.1287 132.976 41.9599C134.954 44.791 137.748 46.2066 141.361 46.2066H144.478C146.125 46.275 147.763 45.9208 149.235 45.1777C150.708 44.4345 151.967 43.3269 152.893 41.9599C154.882 39.1287 155.879 35.2742 155.883 30.3966V25.5917C156.512 25.3772 157.12 25.1051 157.699 24.7788C158.42 24.3734 159.064 23.8435 159.6 23.2135C160.225 22.4746 160.73 21.6413 161.096 20.7444C161.538 19.5837 161.744 18.346 161.701 17.1043V10.4793L156.822 10.5036ZM152.33 30.1236C152.33 34.1681 151.603 37.3855 150.151 39.7758C149.532 40.8963 148.617 41.8243 147.506 42.4578C146.395 43.0914 145.132 43.4061 143.855 43.3673H141.984C140.71 43.4087 139.45 43.0948 138.344 42.4607C137.237 41.8266 136.329 40.8971 135.719 39.7758C134.286 37.3815 133.567 34.1641 133.563 30.1236V25.9981C133.563 21.9536 134.282 18.7363 135.719 16.3459C136.33 15.2256 137.239 14.2969 138.345 13.6629C139.451 13.0289 140.71 12.7144 141.984 12.7544H143.855C145.132 12.717 146.395 13.0323 147.505 13.6657C148.615 14.2992 149.531 15.2264 150.151 16.3459C151.603 18.7443 152.33 21.9617 152.33 25.9981V30.1236Z" fill="#DDD0C8"/>
<path d="M169.723 -0.235121H166.919C166.701 -0.254553 166.483 -0.18696 166.314 -0.0470156C166.161 0.171812 166.094 0.439863 166.127 0.705259V3.70221C166.127 4.30889 166.393 4.57587 166.938 4.57587H169.741C169.859 4.59319 169.98 4.58254 170.094 4.54476C170.207 4.50698 170.311 4.44314 170.395 4.35829C170.48 4.27344 170.544 4.16995 170.581 4.05606C170.619 3.94217 170.63 3.82095 170.612 3.70221V0.668823C170.636 0.546087 170.629 0.419475 170.593 0.299869C170.557 0.180263 170.492 0.0712821 170.405 -0.0176889C170.317 -0.10666 170.209 -0.172954 170.09 -0.210831C169.971 -0.248707 169.845 -0.25705 169.723 -0.235121ZM170.219 42.7481V10.5092H161.744V13.3848H166.665V42.7481H161.744V45.6237H174.832V42.7481H170.219Z" fill="#DDD0C8"/>
<path d="M26.4913 65.0619C24.663 62.255 21.9831 60.8496 18.4517 60.8455C16.4009 60.8495 14.3696 61.2427 12.4648 62.0043C10.5681 62.7323 8.92326 63.9969 7.73059 65.6444V52.0244H-0.0180664V54.9001H4.09244V94.6982H1.06558V96.5728H6.61089V92.138C7.91963 93.8361 9.65013 95.1603 11.6295 95.9782C13.8249 96.8292 16.1652 97.2414 18.5185 97.1916C22.0136 97.1916 24.673 95.776 26.4972 92.9449C28.3214 90.1137 29.2375 86.3118 29.2456 81.5393V76.419C29.2415 71.6464 28.3235 67.8607 26.4913 65.0619ZM25.6861 81.151C25.6861 85.1955 24.9676 88.4028 23.5309 90.7729C22.9339 91.8752 22.045 92.791 20.9619 93.4194C19.8788 94.0477 18.6435 94.3643 17.3923 94.3341C16.0273 94.3839 14.6692 94.1201 13.4216 93.5627C12.174 93.0054 11.0702 92.1695 10.1947 91.1188C8.3866 88.9711 7.48259 85.877 7.48259 81.8366V75.3269C7.46027 73.717 7.7014 72.1144 8.19674 70.5827C8.63004 69.255 9.30781 68.0204 10.1947 66.9427C11.0404 65.9273 12.1039 65.1164 13.3061 64.5705C14.5909 63.9953 15.9853 63.7075 17.3923 63.7273C18.6435 63.6971 19.8788 64.0137 20.9619 64.642C22.045 65.2704 22.9339 66.1861 23.5309 67.2885C24.9676 69.6626 25.6861 72.8699 25.6861 76.9104V81.151Z" fill="#DDD0C8"/>
<path d="M39.1256 93.7093V61.4704H30.6504V64.3461H35.572V93.7093H30.6504V96.5849H43.7445V93.7093H39.1256ZM34.9545 49.8525H30.2144L37.1339 58.4734H40.7661L34.9545 49.8525Z" fill="#DDD0C8"/>
<path d="M69.8295 93.7093V71.7779C69.8295 68.2409 69.1335 65.5291 67.7412 63.6605C66.3488 61.7919 64.2177 60.8455 61.3543 60.8455C59.4602 60.8265 57.5788 61.1555 55.8031 61.8162C54.0723 62.4856 52.6061 63.7016 51.6261 65.2803V61.4704H43.2114V64.346H48.0544V93.7093H43.2537V96.5849H56.0998V93.7093H51.6077V73.4037C51.5935 72.0729 51.815 70.7501 52.2616 69.4967C52.6689 68.3791 53.2853 67.3495 54.0777 66.4633C54.8497 65.6064 55.7949 64.9239 56.8504 64.4613C57.9981 63.9717 59.2353 63.7279 60.4826 63.7454C61.3564 63.6888 62.229 63.8745 63.0043 64.2823C63.7796 64.6901 64.4279 65.304 64.8778 66.0568C65.8141 67.5978 66.2821 69.8061 66.2821 72.6818V93.7335H61.4391V96.6092H74.3456V93.7335L69.8295 93.7093Z" fill="#DDD0C8"/>
<path d="M100.88 93.7095V71.778C100.88 68.2411 100.171 65.5293 98.7608 63.6607C97.3502 61.7921 95.2073 60.8457 92.3378 60.8457C90.4341 60.8283 88.5428 61.1572 86.7562 61.8164C85.0117 62.4758 83.533 63.6934 82.549 65.2805V53.5898C81.5314 53.8792 80.4768 54.0162 79.4193 53.9963H77.4276C76.3815 54.016 75.3371 53.8977 74.3218 53.6444V54.9124H78.9954V93.7397H74.443V96.6154H87.2223V93.7397H82.549V73.4343C82.5348 72.1034 82.7562 70.7806 83.2028 69.5272C83.6044 68.4068 84.2214 67.3762 85.019 66.4938C85.8056 65.6401 86.7598 64.9585 87.8218 64.4918C88.9696 64.0026 90.2068 63.7587 91.454 63.7759C93.4881 63.7759 94.9772 64.5464 95.9095 66.0874C96.8418 67.6284 97.3138 69.8366 97.3138 72.7123V93.764H92.5134V96.6397H105.317V93.764L100.88 93.7095Z" fill="#DDD0C8"/>
<path d="M133.007 91.1489C133.056 91.9674 132.934 92.7871 132.649 93.5559C132.365 94.3247 131.923 95.0256 131.354 95.614C130.753 96.1613 130.05 96.584 129.285 96.8579C128.52 97.1317 127.709 97.2513 126.898 97.2096C124.864 97.2096 123.387 96.6636 122.473 95.5837C121.559 94.5038 121.099 92.8355 121.099 90.5847V64.3459H115.989V61.4702H121.099V53.8503L124.404 53.6016H124.652V61.4884H132.007V64.3641H124.652V90.1661C124.652 92.9568 125.661 94.3521 127.679 94.3521C128.108 94.395 128.541 94.3186 128.93 94.1313C129.318 93.944 129.648 93.6531 129.883 93.2905C130.306 92.5806 130.488 91.2884 130.488 89.4138L132.982 89.6686L133.007 91.1489Z" fill="#DDD0C8"/>
<path d="M166.871 96.5611H154.092V93.6855H158.892V72.6338C158.892 69.7581 158.424 67.5498 157.488 66.0088C156.556 64.4679 155.066 63.6973 153.032 63.6973C151.785 63.6801 150.548 63.924 149.4 64.4132C148.338 64.8799 147.384 65.5616 146.597 66.4153C145.796 67.3066 145.179 68.3478 144.781 69.479C144.334 70.7301 144.112 72.0511 144.127 73.38V93.6855H148.807V96.5611H136.009V93.6855H140.562V54.8581H135.888V51.9824H144.115V65.2262C145.099 63.6391 146.578 62.4216 148.323 61.7621C150.11 61.1058 152 60.7771 153.904 60.7914C156.773 60.7914 158.915 61.7297 160.327 63.6064C161.74 65.483 162.446 68.1888 162.446 71.7237V93.6551H166.871V96.5611Z" fill="#DDD0C8"/>
<path d="M195.923 96.5605H187.757V92.3137C186.752 93.9015 185.313 95.1653 183.61 95.9538C181.781 96.7869 179.789 97.2013 177.78 97.1672C174.919 97.1672 172.8 96.2086 171.424 94.2915C170.047 92.3744 169.361 89.5837 169.365 85.9193V64.3034H165V61.4277H172.919V85.4219C172.919 88.4189 173.387 90.6434 174.323 92.0953C175.26 93.5473 176.807 94.2753 178.967 94.2794C180.163 94.2919 181.346 94.0348 182.429 93.5271C183.476 93.0384 184.418 92.3502 185.202 91.5008C185.999 90.6185 186.616 89.5879 187.018 88.4674C187.461 87.2362 187.682 85.9359 187.672 84.6271V64.3216H183.059V61.446H191.28V74.1316C192.079 73.9781 192.821 73.6113 193.429 73.0699C193.913 72.6204 194.287 72.0636 194.519 71.444C194.775 70.7638 194.922 70.0471 194.954 69.3206V67.3186H193.399V61.446H198.326V68.0709C198.383 69.5467 198.082 71.0142 197.449 72.3479C196.946 73.3517 196.248 74.2448 195.396 74.9749C194.693 75.5699 193.889 76.0342 193.023 76.346C192.451 76.5532 191.87 76.7314 191.28 76.8799V93.6848H195.953L195.923 96.5605Z" fill="#DDD0C8"/>
<path d="M226.519 81.3939C226.519 86.2716 225.522 90.1139 223.528 92.9208C222.601 94.2888 221.342 95.3969 219.868 96.1401C218.394 96.8833 216.755 97.237 215.107 97.1676H211.99C208.357 97.1676 205.562 95.752 203.605 92.9208C201.648 90.0897 200.661 86.2474 200.645 81.3939V76.6497C200.645 71.7721 201.632 67.9176 203.605 65.0864C205.579 62.2553 208.373 60.8397 211.99 60.8397H215.107C218.396 60.8397 221.006 61.9863 222.935 64.2796C224.864 66.5728 226.016 69.7376 226.391 73.774C226.971 73.4783 227.473 73.0502 227.856 72.5243C228.183 72.0841 228.446 71.6001 228.637 71.0865C228.809 70.515 228.934 69.9307 229.013 69.3392V67.3372H227.451V61.4646H232.379V68.0895C232.418 69.3309 232.213 70.5681 231.773 71.7295C231.408 72.6264 230.903 73.4598 230.278 74.1987C229.743 74.8287 229.099 75.3568 228.377 75.7579C227.8 76.0881 227.191 76.3604 226.561 76.5709L226.519 81.3939ZM222.965 81.0845V76.9591C222.965 72.9146 222.239 69.6972 220.786 67.3069C220.165 66.1864 219.249 65.2585 218.138 64.6251C217.026 63.9916 215.762 63.6768 214.484 63.7153H212.613C211.34 63.6737 210.081 63.9876 208.975 64.6218C207.87 65.256 206.962 66.1856 206.353 67.3069C204.917 69.7053 204.198 72.9227 204.198 76.9591V81.0845C204.198 85.129 204.917 88.3465 206.353 90.7368C206.962 91.858 207.87 92.7877 208.975 93.4219C210.081 94.0561 211.34 94.3699 212.613 94.3283H214.484C215.762 94.3668 217.026 94.052 218.138 93.4186C219.249 92.7851 220.165 91.8573 220.786 90.7368C222.239 88.3465 222.965 85.1311 222.965 81.0906V81.0845ZM217.856 58.4676H214.223L207.316 49.8467H212.056L217.856 58.4676Z" fill="#DDD0C8"/>
<path d="M263.489 96.5603H250.606V93.6846H255.449V72.6329C255.449 69.7573 254.981 67.549 254.045 66.008C253.595 65.2552 252.947 64.6411 252.171 64.2334C251.396 63.8256 250.524 63.6399 249.65 63.6965C248.402 63.679 247.165 63.9228 246.018 64.4124C244.962 64.8751 244.017 65.5576 243.245 66.4145C242.449 67.3092 241.832 68.3494 241.429 69.4782C240.982 70.7293 240.76 72.0503 240.775 73.3791V93.6846H245.267V96.5603H232.445V93.6846H237.246V64.3214H232.403V61.4458H240.817V65.2557C241.797 63.6771 243.264 62.461 244.994 61.7915C246.771 61.1337 248.652 60.8049 250.546 60.8209C253.411 60.8209 255.54 61.7592 256.933 63.6359C258.325 65.5125 259.021 68.2183 259.021 71.7532V93.6846H263.513L263.489 96.5603Z" fill="#DDD0C8"/>
<path d="M292.662 64.3464H288.297V96.9614C288.297 100.832 287.445 103.611 285.742 105.297C284.039 106.984 281.297 107.827 277.515 107.827H274.767C271.655 107.827 269.27 107.22 267.63 106.007C266.812 105.394 266.143 104.603 265.674 103.694C265.204 102.786 264.946 101.782 264.918 100.759C265.335 100.153 265.753 99.8189 266.165 99.8189C266.454 99.7631 266.748 99.7427 267.042 99.7582H268.471C268.64 101.55 269.246 102.862 270.287 103.696C271.346 104.527 273.023 104.945 275.306 104.945H277.303C279.919 104.945 281.81 104.298 282.976 103.004C284.142 101.71 284.723 99.5661 284.719 96.5732V91.198C283.718 93.0012 282.167 94.4362 280.294 95.2931C278.331 96.1638 276.205 96.6004 274.059 96.5732C272.505 96.5994 270.97 96.2233 269.603 95.4811C268.276 94.7368 267.135 93.6995 266.268 92.4477C265.29 90.9932 264.582 89.3737 264.179 87.6671C263.679 85.602 263.439 83.4824 263.465 81.3576V76.2373C263.441 74.1006 263.681 71.9692 264.179 69.8915C264.581 68.1669 265.277 66.5249 266.237 65.038C267.076 63.7567 268.21 62.6956 269.542 61.9439C270.909 61.201 272.444 60.8248 273.998 60.852C276.143 60.8333 278.268 61.2695 280.233 62.132C282.092 62.9438 283.658 64.3074 284.719 66.039V61.4768H292.638L292.662 64.3464ZM284.744 79.3374V78.4638C284.757 76.4938 284.581 74.5271 284.217 72.5912C283.921 70.9858 283.429 69.4229 282.752 67.9379C282.226 66.7614 281.461 65.7077 280.506 64.8439C279.719 64.1298 278.698 63.7304 277.636 63.7215H274.894C273.746 63.7037 272.618 64.029 271.655 64.6558C270.648 65.3353 269.806 66.2331 269.192 67.2827C268.455 68.5346 267.918 69.8936 267.599 71.3111C267.212 73.0021 267.025 74.733 267.042 76.4678V81.0907C267.03 82.8162 267.233 84.5364 267.648 86.211C267.986 87.6129 268.543 88.9521 269.3 90.1787C269.944 91.2176 270.805 92.1036 271.825 92.7753C272.803 93.3988 273.941 93.7235 275.1 93.7096H277.721C278.743 93.7023 279.728 93.3253 280.494 92.648C281.433 91.8211 282.195 90.8119 282.733 89.6813C283.435 88.2451 283.94 86.7207 284.235 85.1494C284.595 83.2336 284.766 81.2868 284.744 79.3374Z" fill="#DDD0C8"/>
</g>
</g>
<defs>
<clipPath id="clip0_2361_1374">
<rect width="296" height="123" fill="white"/>
</clipPath>
<clipPath id="clip1_2361_1374">
<rect width="292.662" height="124.108" fill="white" transform="translate(0 -1.1084)"/>
</clipPath>
</defs>
</svg>
